<svg width="29" height="29" viewBox="0 0 29 29" fill="none" xmlns="http://www.w3.org/2000/svg">
<path d="M13.5491 11.8L10.1186 10.45L5.83049 14.5M20.4102 24.602C19.4439 25.6555 18.1731 26.513 16.7028 27.1038C15.2325 27.6946 13.6048 28.0018 11.954 28C6.2027 28 1.54236 24.3482 1.54236 19.8433C1.54236 18.662 1.82366 17.5388 2.39999 16.525M15.5217 9.1L14.2284 11.5921C12.9145 14.1287 12.2576 15.3964 13.0054 16.2982C13.7533 17.2 15.4616 17.2 18.8784 17.2C20.0688 17.2 21.218 16.957 21.8801 17.8696L27.2712 25.3M17.8373 6.4C16.9274 6.4 16.0549 6.11554 15.4115 5.60919C14.7682 5.10284 14.4068 4.41608 14.4068 3.7C14.4068 2.98391 14.7682 2.29716 15.4115 1.79081C16.0549 1.28446 16.9274 1 17.8373 1C18.7471 1 19.6197 1.28446 20.263 1.79081C20.9064 2.29716 21.2678 2.98391 21.2678 3.7C21.2678 4.41608 20.9064 5.10284 20.263 5.60919C19.6197 6.11554 18.7471 6.4 17.8373 6.4Z" stroke="#E0D9F7" stroke-width="2" stroke-linecap="round" stroke-linejoin="round"/>
</svg>
